<svg width="512" height="519" viewBox="0 0 512 519" fill="none" xmlns="http://www.w3.org/2000/svg">
<path fill-rule="evenodd" clip-rule="evenodd" d="M111.159 161.673C123.235 123.966 136.679 82.347 170.831 62.3358C206.129 41.6529 253.73 38.5307 290.349 56.6764C324.916 73.8053 327.344 121.501 351.288 151.758C372.866 179.025 410.841 191.454 422.842 224.104C436.538 261.367 437.795 304.509 420.598 340.327C402.78 377.44 368.102 405.22 329.308 418.925C292.228 432.024 253.284 419.016 214.421 413.163C172.554 406.857 117.949 418.507 94.1228 383.504C69.7387 347.681 105.052 300.614 108.373 257.37C110.878 224.751 101.18 192.835 111.159 161.673Z" fill="#84BBB2"/>
<path fill-rule="evenodd" clip-rule="evenodd" d="M266.197 112.168C298.955 105.06 335.161 97.2997 364.29 113.869C394.397 130.994 416.836 164.573 419.033 199.103C421.107 231.698 387.164 253.669 375.116 284.033C364.258 311.396 371.22 344.501 352.361 367.121C330.838 392.937 299.739 412.12 266.197 414.674C231.444 417.32 196.396 403.654 169.925 381.012C144.624 359.37 137.677 325.31 125.517 294.338C112.417 260.972 80.7612 225.867 96.3394 193.58C112.282 160.538 161.74 166.506 194.853 150.635C219.829 138.664 239.124 118.043 266.197 112.168Z" fill="#388075"/>
<path d="M284.333 222.084H209.667C204.533 222.084 200.38 226.284 200.38 231.417L200.333 287.417C200.333 292.551 204.533 296.751 209.667 296.751H284.333C289.467 296.751 293.667 292.551 293.667 287.417V231.417C293.667 226.284 289.467 222.084 284.333 222.084ZM284.333 240.751L247 264.084L209.667 240.751V231.417L247 254.751L284.333 231.417V240.751Z" fill="white"/>
</svg>
