<svg width="30" height="31" viewBox="0 0 30 31" fill="none" xmlns="http://www.w3.org/2000/svg">
<path d="M27.369 2.66571C25.3933 0.700945 22.6531 0.238364 20.6578 2.18321L20.6574 2.18277L20.6112 2.22902C20.6082 2.23201 20.6046 2.23557 20.6013 2.23885L14.2637 8.57652L21.4778 15.7907L27.8253 9.4432C27.8283 9.44022 27.8319 9.43665 27.8352 9.43337L27.8716 9.39699C29.8203 7.39771 29.353 4.64964 27.3788 2.67554L27.369 2.66571Z" fill="#388075"/>
<path d="M26.9792 8.48572L21.4932 13.9717L26.9792 8.48572Z" fill="#388075"/>
<path d="M26.9792 8.48572L21.4932 13.9717" stroke="#388075" stroke-width="1.4541" stroke-linecap="round" stroke-linejoin="round"/>
<path d="M27.3891 28.8959C29.3539 26.9202 29.8164 24.18 27.8716 22.1847L27.872 22.1843L27.8258 22.1381C27.8228 22.1351 27.8192 22.1314 27.816 22.1282L21.4783 15.7906L14.2641 23.0047L20.6116 29.3522C20.6146 29.3552 20.6182 29.3588 20.6214 29.3621L20.6578 29.3985C22.6571 31.3471 25.4052 30.8799 27.3793 28.9057L27.3891 28.8959Z" fill="#388075"/>
<path d="M21.5688 28.5061L16.0829 23.0201L21.5688 28.5061Z" fill="#388075"/>
<path d="M21.5688 28.5061L16.0829 23.0201" stroke="#388075" stroke-width="1.4541" stroke-linecap="round" stroke-linejoin="round"/>
<path d="M17.8183 15.1961C17.4792 15.5351 17.4792 16.0849 17.8183 16.424C18.1573 16.7631 18.7071 16.7631 19.0462 16.424C19.3853 16.0849 19.3853 15.5351 19.0462 15.1961C18.7071 14.857 18.1573 14.857 17.8183 15.1961Z" fill="#388075"/>
<path d="M16.1874 16.8269C15.8483 17.1659 15.8483 17.7157 16.1874 18.0548C16.5265 18.3939 17.0762 18.3939 17.4153 18.0548C17.7544 17.7157 17.7544 17.1659 17.4153 16.8269C17.0762 16.4878 16.5265 16.4878 16.1874 16.8269Z" fill="#388075"/>
<path d="M14.5565 18.4574C14.2174 18.7965 14.2174 19.3463 14.5565 19.6854C14.8956 20.0245 15.4454 20.0245 15.7845 19.6854C16.1236 19.3463 16.1236 18.7965 15.7845 18.4574C15.4454 18.1184 14.8956 18.1184 14.5565 18.4574Z" fill="#388075"/>
<path d="M12.9257 20.0882C12.5866 20.4273 12.5866 20.977 12.9257 21.3161C13.2648 21.6552 13.8145 21.6552 14.1536 21.3161C14.4927 20.977 14.4927 20.4273 14.1536 20.0882C13.8145 19.7491 13.2648 19.7491 12.9257 20.0882Z" fill="#388075"/>
<path d="M11.2953 21.719C10.9562 22.0581 10.9562 22.6079 11.2953 22.9469C11.6344 23.286 12.1842 23.286 12.5232 22.9469C12.8623 22.6079 12.8623 22.0581 12.5232 21.719C12.1842 21.3799 11.6344 21.3799 11.2953 21.719Z" fill="#388075"/>
<path d="M9.66444 23.3498C9.32536 23.6889 9.32536 24.2386 9.66444 24.5777C10.0035 24.9168 10.5533 24.9168 10.8924 24.5777C11.2315 24.2386 11.2315 23.6889 10.8924 23.3498C10.5533 23.0107 10.0035 23.0107 9.66444 23.3498Z" fill="#388075"/>
<path d="M8.03359 24.9806C7.6945 25.3197 7.6945 25.8694 8.03359 26.2085C8.37267 26.5476 8.92243 26.5476 9.26152 26.2085C9.60061 25.8694 9.60061 25.3197 9.26152 24.9806C8.92243 24.6415 8.37267 24.6415 8.03359 24.9806Z" fill="#388075"/>
<path d="M6.40273 26.6113C6.06364 26.9504 6.06364 27.5002 6.40273 27.8392C6.74181 28.1783 7.29157 28.1783 7.63066 27.8392C7.96975 27.5002 7.96975 26.9504 7.63066 26.6113C7.29157 26.2722 6.74181 26.2722 6.40273 26.6113Z" fill="#388075"/>
<path d="M4.77187 28.2421C4.43278 28.5812 4.43278 29.131 4.77187 29.47C5.11095 29.8091 5.66072 29.8091 5.9998 29.47C6.33889 29.131 6.33889 28.5812 5.9998 28.2421C5.66072 27.903 5.11095 27.903 4.77187 28.2421Z" fill="#388075"/>
<path d="M16.1874 14.7942C15.8483 14.4551 15.8483 13.9053 16.1874 13.5662C16.5265 13.2272 17.0762 13.2272 17.4153 13.5662C17.7544 13.9053 17.7544 14.4551 17.4153 14.7942C17.0762 15.1333 16.5265 15.1333 16.1874 14.7942Z" fill="#388075"/>
<path d="M14.5565 13.1634C14.2174 12.8243 14.2174 12.2746 14.5565 11.9355C14.8956 11.5964 15.4454 11.5964 15.7845 11.9355C16.1236 12.2746 16.1236 12.8243 15.7845 13.1634C15.4454 13.5025 14.8956 13.5025 14.5565 13.1634Z" fill="#388075"/>
<path d="M12.9257 11.5326C12.5866 11.1935 12.5866 10.6438 12.9257 10.3047C13.2648 9.96559 13.8145 9.96559 14.1536 10.3047C14.4927 10.6438 14.4927 11.1935 14.1536 11.5326C13.8145 11.8717 13.2648 11.8717 12.9257 11.5326Z" fill="#388075"/>
<path d="M11.2953 9.90187C10.9562 9.56278 10.9562 9.01302 11.2953 8.67394C11.6344 8.33485 12.1842 8.33485 12.5232 8.67394C12.8623 9.01302 12.8623 9.56278 12.5232 9.90187C12.1842 10.241 11.6344 10.241 11.2953 9.90187Z" fill="#388075"/>
<path d="M9.66444 8.27107C9.32536 7.93199 9.32536 7.38222 9.66444 7.04314C10.0035 6.70405 10.5533 6.70405 10.8924 7.04314C11.2315 7.38222 11.2315 7.93199 10.8924 8.27107C10.5533 8.61016 10.0035 8.61016 9.66444 8.27107Z" fill="#388075"/>
<path d="M8.03359 6.64033C7.6945 6.30125 7.6945 5.75149 8.03359 5.4124C8.37267 5.07331 8.92243 5.07331 9.26152 5.4124C9.60061 5.75149 9.60061 6.30125 9.26152 6.64033C8.92243 6.97942 8.37267 6.97942 8.03359 6.64033Z" fill="#388075"/>
<path d="M6.40273 5.00954C6.06364 4.67045 6.06363 4.12068 6.40272 3.78159C6.74181 3.44251 7.29157 3.44251 7.63066 3.7816C7.96975 4.12069 7.96975 4.67045 7.63066 5.00954C7.29157 5.34862 6.74181 5.34862 6.40273 5.00954Z" fill="#388075"/>
<path d="M4.77187 3.37895C4.43278 3.03986 4.43277 2.4901 4.77186 2.15101C5.11095 1.81192 5.66072 1.81193 5.9998 2.15102C6.33889 2.4901 6.33889 3.03986 5.9998 3.37895C5.66072 3.71804 5.11095 3.71804 4.77187 3.37895Z" fill="#388075"/>
<path d="M14.2665 15.1961C13.9274 15.5351 13.9274 16.0849 14.2665 16.424C14.6056 16.7631 15.1553 16.7631 15.4944 16.424C15.8335 16.0849 15.8335 15.5351 15.4944 15.1961C15.1553 14.857 14.6056 14.857 14.2665 15.1961Z" fill="#388075"/>
<path d="M12.6356 16.8269C12.2965 17.1659 12.2965 17.7157 12.6356 18.0548C12.9747 18.3939 13.5245 18.3939 13.8636 18.0548C14.2027 17.7157 14.2027 17.1659 13.8636 16.8269C13.5245 16.4878 12.9747 16.4878 12.6356 16.8269Z" fill="#388075"/>
<path d="M11.0048 18.4576C10.6657 18.7967 10.6657 19.3465 11.0048 19.6856C11.3439 20.0246 11.8936 20.0246 12.2327 19.6856C12.5718 19.3465 12.5718 18.7967 12.2327 18.4576C11.8936 18.1185 11.3439 18.1185 11.0048 18.4576Z" fill="#388075"/>
<path d="M9.37392 20.0882C9.03483 20.4273 9.03483 20.977 9.37392 21.3161C9.713 21.6552 10.2628 21.6552 10.6019 21.3161C10.9409 20.977 10.9409 20.4273 10.6019 20.0882C10.2628 19.7491 9.713 19.7491 9.37392 20.0882Z" fill="#388075"/>
<path d="M7.74355 21.719C7.40446 22.0581 7.40446 22.6079 7.74355 22.9469C8.08263 23.286 8.63239 23.286 8.97148 22.9469C9.31057 22.6079 9.31057 22.0581 8.97148 21.719C8.63239 21.3799 8.08263 21.3799 7.74355 21.719Z" fill="#388075"/>
<path d="M6.11269 23.3498C5.7736 23.6889 5.7736 24.2386 6.11269 24.5777C6.45177 24.9168 7.00154 24.9168 7.34062 24.5777C7.67971 24.2386 7.67971 23.6889 7.34062 23.3498C7.00154 23.0107 6.45177 23.0107 6.11269 23.3498Z" fill="#388075"/>
<path d="M4.48183 24.9806C4.14274 25.3197 4.14274 25.8694 4.48183 26.2085C4.82091 26.5476 5.37068 26.5476 5.70976 26.2085C6.04885 25.8694 6.04885 25.3197 5.70976 24.9806C5.37068 24.6415 4.82091 24.6415 4.48183 24.9806Z" fill="#388075"/>
<path d="M2.85097 26.6113C2.51188 26.9504 2.51188 27.5002 2.85097 27.8392C3.19006 28.1783 3.73982 28.1783 4.0789 27.8392C4.41799 27.5002 4.41799 26.9504 4.0789 26.6113C3.73982 26.2722 3.19006 26.2722 2.85097 26.6113Z" fill="#388075"/>
<path d="M1.22011 28.2421C0.881022 28.5812 0.881022 29.131 1.22011 29.47C1.5592 29.8091 2.10896 29.8091 2.44804 29.47C2.78713 29.131 2.78713 28.5812 2.44804 28.2421C2.10896 27.903 1.5592 27.903 1.22011 28.2421Z" fill="#388075"/>
<path d="M12.6356 14.7942C12.2965 14.4551 12.2965 13.9053 12.6356 13.5662C12.9747 13.2272 13.5245 13.2272 13.8636 13.5662C14.2027 13.9053 14.2027 14.4551 13.8636 14.7942C13.5245 15.1333 12.9747 15.1333 12.6356 14.7942Z" fill="#388075"/>
<path d="M11.0048 13.1634C10.6657 12.8243 10.6657 12.2746 11.0048 11.9355C11.3439 11.5964 11.8936 11.5964 12.2327 11.9355C12.5718 12.2746 12.5718 12.8243 12.2327 13.1634C11.8936 13.5025 11.3439 13.5025 11.0048 13.1634Z" fill="#388075"/>
<path d="M9.37392 11.5326C9.03483 11.1935 9.03483 10.6438 9.37392 10.3047C9.713 9.96559 10.2628 9.96559 10.6019 10.3047C10.9409 10.6438 10.9409 11.1935 10.6019 11.5326C10.2628 11.8717 9.713 11.8717 9.37392 11.5326Z" fill="#388075"/>
<path d="M7.74355 9.90187C7.40446 9.56278 7.40446 9.01302 7.74355 8.67394C8.08263 8.33485 8.63239 8.33485 8.97148 8.67394C9.31057 9.01302 9.31057 9.56278 8.97148 9.90187C8.63239 10.241 8.08263 10.241 7.74355 9.90187Z" fill="#388075"/>
<path d="M6.11269 8.27107C5.7736 7.93199 5.7736 7.38222 6.11269 7.04314C6.45177 6.70405 7.00154 6.70405 7.34062 7.04314C7.67971 7.38222 7.67971 7.93199 7.34062 8.27107C7.00154 8.61016 6.45177 8.61016 6.11269 8.27107Z" fill="#388075"/>
<path d="M4.48182 6.64033C4.14273 6.30124 4.14273 5.75148 4.48182 5.41239C4.82091 5.07331 5.37067 5.07331 5.70976 5.41239C6.04884 5.75148 6.04885 6.30125 5.70976 6.64033C5.37068 6.97942 4.82091 6.97942 4.48182 6.64033Z" fill="#388075"/>
<path d="M2.85097 5.00954C2.51188 4.67045 2.51188 4.12068 2.85096 3.78159C3.19005 3.44251 3.73982 3.44251 4.0789 3.7816C4.41799 4.12069 4.41799 4.67045 4.0789 5.00954C3.73982 5.34862 3.19006 5.34862 2.85097 5.00954Z" fill="#388075"/>
<path d="M1.2201 3.37895C0.881016 3.03986 0.881009 2.49009 1.2201 2.151C1.55918 1.81192 2.10895 1.81192 2.44804 2.15101C2.78712 2.4901 2.78713 3.03986 2.44804 3.37895C2.10896 3.71804 1.55919 3.71803 1.2201 3.37895Z" fill="#388075"/>
<path d="M10.3978 15.1961C10.0588 15.5351 10.0588 16.0849 10.3978 16.424C10.7369 16.7631 11.2867 16.7631 11.6258 16.424C11.9649 16.0849 11.9649 15.5351 11.6258 15.1961C11.2867 14.857 10.7369 14.857 10.3978 15.1961Z" fill="#388075"/>
<path d="M8.76698 16.8269C8.4279 17.1659 8.4279 17.7157 8.76698 18.0548C9.10607 18.3939 9.65583 18.3939 9.99492 18.0548C10.334 17.7157 10.334 17.1659 9.99492 16.8269C9.65583 16.4878 9.10607 16.4878 8.76698 16.8269Z" fill="#388075"/>
<path d="M7.1371 18.4576C6.79801 18.7967 6.79801 19.3465 7.1371 19.6856C7.47619 20.0246 8.02595 20.0246 8.36504 19.6856C8.70412 19.3465 8.70412 18.7967 8.36504 18.4576C8.02595 18.1185 7.47619 18.1185 7.1371 18.4576Z" fill="#388075"/>
<path d="M5.50624 20.0882C5.16715 20.4273 5.16715 20.977 5.50624 21.3161C5.84533 21.6552 6.39509 21.6552 6.73418 21.3161C7.07326 20.977 7.07326 20.4273 6.73418 20.0882C6.39509 19.7491 5.84533 19.7491 5.50624 20.0882Z" fill="#388075"/>
<path d="M3.87538 21.719C3.5363 22.0581 3.5363 22.6079 3.87538 22.9469C4.21447 23.286 4.76423 23.286 5.10332 22.9469C5.4424 22.6079 5.4424 22.0581 5.10332 21.719C4.76423 21.3799 4.21447 21.3799 3.87538 21.719Z" fill="#388075"/>
<path d="M2.24452 23.3498C1.90544 23.6889 1.90544 24.2386 2.24452 24.5777C2.58361 24.9168 3.13337 24.9168 3.47246 24.5777C3.81155 24.2386 3.81155 23.6889 3.47246 23.3498C3.13337 23.0107 2.58361 23.0107 2.24452 23.3498Z" fill="#388075"/>
<path d="M0.614152 24.9806C0.275065 25.3197 0.275065 25.8694 0.614152 26.2085C0.953239 26.5476 1.503 26.5476 1.84209 26.2085C2.18117 25.8694 2.18117 25.3197 1.84209 24.9806C1.503 24.6415 0.953239 24.6415 0.614152 24.9806Z" fill="#388075"/>
<path d="M8.76698 14.7942C8.4279 14.4551 8.4279 13.9053 8.76698 13.5662C9.10607 13.2272 9.65583 13.2272 9.99492 13.5662C10.334 13.9053 10.334 14.4551 9.99492 14.7942C9.65583 15.1333 9.10607 15.1333 8.76698 14.7942Z" fill="#388075"/>
<path d="M7.1371 13.1634C6.79801 12.8243 6.79801 12.2746 7.1371 11.9355C7.47619 11.5964 8.02595 11.5964 8.36504 11.9355C8.70412 12.2746 8.70412 12.8243 8.36504 13.1634C8.02595 13.5025 7.47619 13.5025 7.1371 13.1634Z" fill="#388075"/>
<path d="M5.50624 11.5326C5.16715 11.1935 5.16715 10.6438 5.50624 10.3047C5.84533 9.96559 6.39509 9.96559 6.73418 10.3047C7.07326 10.6438 7.07326 11.1935 6.73418 11.5326C6.39509 11.8717 5.84533 11.8717 5.50624 11.5326Z" fill="#388075"/>
<path d="M3.87538 9.90187C3.5363 9.56278 3.53629 9.01302 3.87538 8.67393C4.21446 8.33484 4.76423 8.33485 5.10332 8.67394C5.4424 9.01302 5.4424 9.56278 5.10332 9.90187C4.76423 10.241 4.21447 10.241 3.87538 9.90187Z" fill="#388075"/>
<path d="M2.24452 8.27107C1.90543 7.93198 1.90543 7.38222 2.24452 7.04313C2.5836 6.70404 3.13336 6.70404 3.47245 7.04313C3.81154 7.38222 3.81155 7.93199 3.47246 8.27107C3.13337 8.61016 2.5836 8.61015 2.24452 8.27107Z" fill="#388075"/>
<path d="M0.614146 6.64033C0.275059 6.30124 0.275059 5.75148 0.614146 5.41239C0.953232 5.07331 1.50299 5.07331 1.84208 5.41239C2.18117 5.75148 2.18117 6.30125 1.84209 6.64033C1.503 6.97942 0.953232 6.97942 0.614146 6.64033Z" fill="#388075"/>
</svg>

