<svg width="24" height="25" viewBox="0 0 24 25" fill="none" xmlns="http://www.w3.org/2000/svg">
<path d="M22.3537 1.41182C20.7401 -0.192908 18.502 -0.570723 16.8724 1.01774L16.872 1.01738L16.8343 1.05515C16.8318 1.05759 16.8288 1.06051 16.8262 1.06319L11.6499 6.2395L17.5421 12.1317L22.7264 6.94736C22.7289 6.94493 22.7318 6.94201 22.7345 6.93933L22.7642 6.90962C24.3558 5.2767 23.9742 3.03221 22.3617 1.41985L22.3537 1.41182Z" fill="#F6FFFE"/>
<path d="M22.0354 6.16553L17.5547 10.6462L22.0354 6.16553Z" fill="#F6FFFE"/>
<path d="M22.0354 6.16553L17.5547 10.6462" stroke="#F6FFFE" stroke-width="1.18764" stroke-linecap="round" stroke-linejoin="round"/>
<path d="M22.3704 22.8357C23.9751 21.222 24.3529 18.984 22.7645 17.3543L22.7648 17.3539L22.7271 17.3162C22.7246 17.3138 22.7217 17.3108 22.719 17.3081L17.5427 12.1318L11.6505 18.024L16.8349 23.2084C16.8373 23.2108 16.8402 23.2137 16.8429 23.2164L16.8726 23.2461C18.5055 24.8377 20.75 24.4561 22.3624 22.8437L22.3704 22.8357Z" fill="#F6FFFE"/>
<path d="M17.6167 22.5173L13.136 18.0366L17.6167 22.5173Z" fill="#F6FFFE"/>
<path d="M17.6167 22.5173L13.136 18.0366" stroke="#F6FFFE" stroke-width="1.18764" stroke-linecap="round" stroke-linejoin="round"/>
<path d="M14.5532 11.646C14.2763 11.923 14.2763 12.372 14.5532 12.6489C14.8302 12.9259 15.2792 12.9259 15.5562 12.6489C15.8331 12.372 15.8331 11.923 15.5562 11.646C15.2792 11.3691 14.8302 11.3691 14.5532 11.646Z" fill="#F6FFFE"/>
<path d="M13.2212 12.978C12.9443 13.255 12.9443 13.704 13.2212 13.981C13.4982 14.2579 13.9472 14.2579 14.2241 13.981C14.5011 13.704 14.5011 13.255 14.2241 12.978C13.9472 12.7011 13.4982 12.7011 13.2212 12.978Z" fill="#F6FFFE"/>
<path d="M11.8892 14.3096C11.6122 14.5865 11.6122 15.0355 11.8892 15.3125C12.1661 15.5894 12.6151 15.5894 12.8921 15.3125C13.169 15.0355 13.169 14.5865 12.8921 14.3096C12.6151 14.0326 12.1661 14.0326 11.8892 14.3096Z" fill="#F6FFFE"/>
<path d="M10.5571 15.6416C10.2802 15.9186 10.2802 16.3676 10.5571 16.6445C10.8341 16.9215 11.2831 16.9215 11.5601 16.6445C11.837 16.3676 11.837 15.9186 11.5601 15.6416C11.2831 15.3647 10.8341 15.3647 10.5571 15.6416Z" fill="#F6FFFE"/>
<path d="M9.22511 16.9736C8.94816 17.2506 8.94816 17.6996 9.22511 17.9766C9.50206 18.2535 9.95108 18.2535 10.228 17.9766C10.505 17.6996 10.505 17.2506 10.228 16.9736C9.95108 16.6967 9.50206 16.6967 9.22511 16.9736Z" fill="#F6FFFE"/>
<path d="M7.89357 18.3057C7.61662 18.5826 7.61662 19.0316 7.89357 19.3086C8.17052 19.5855 8.61954 19.5855 8.89649 19.3086C9.17344 19.0316 9.17344 18.5826 8.89649 18.3057C8.61954 18.0287 8.17052 18.0287 7.89357 18.3057Z" fill="#F6FFFE"/>
<path d="M6.56154 19.6377C6.28459 19.9147 6.28459 20.3637 6.56154 20.6406C6.83849 20.9176 7.28751 20.9176 7.56446 20.6406C7.84141 20.3637 7.84141 19.9147 7.56446 19.6377C7.28751 19.3607 6.83849 19.3607 6.56154 19.6377Z" fill="#F6FFFE"/>
<path d="M5.22951 20.9692C4.95256 21.2462 4.95256 21.6952 5.22951 21.9722C5.50646 22.2491 5.95548 22.2491 6.23243 21.9722C6.50938 21.6952 6.50938 21.2462 6.23243 20.9692C5.95548 20.6923 5.50646 20.6923 5.22951 20.9692Z" fill="#F6FFFE"/>
<path d="M3.89747 22.3013C3.62052 22.5782 3.62052 23.0272 3.89747 23.3042C4.17442 23.5811 4.62344 23.5811 4.9004 23.3042C5.17735 23.0272 5.17735 22.5782 4.9004 22.3013C4.62344 22.0243 4.17442 22.0243 3.89747 22.3013Z" fill="#F6FFFE"/>
<path d="M13.2212 11.3179C12.9443 11.0409 12.9443 10.5919 13.2212 10.3149C13.4982 10.038 13.9472 10.038 14.2241 10.3149C14.5011 10.5919 14.5011 11.0409 14.2241 11.3179C13.9472 11.5948 13.4982 11.5948 13.2212 11.3179Z" fill="#F6FFFE"/>
<path d="M11.8892 9.98584C11.6122 9.70888 11.6122 9.25987 11.8892 8.98291C12.1661 8.70596 12.6151 8.70596 12.8921 8.98291C13.169 9.25987 13.169 9.70888 12.8921 9.98584C12.6151 10.2628 12.1661 10.2628 11.8892 9.98584Z" fill="#F6FFFE"/>
<path d="M10.5571 8.6538C10.2802 8.37685 10.2802 7.92783 10.5571 7.65088C10.8341 7.37393 11.2831 7.37393 11.5601 7.65088C11.837 7.92783 11.837 8.37685 11.5601 8.6538C11.2831 8.93075 10.8341 8.93075 10.5571 8.6538Z" fill="#F6FFFE"/>
<path d="M9.22511 7.32226C8.94816 7.04531 8.94816 6.59629 9.22511 6.31934C9.50206 6.04239 9.95108 6.04239 10.228 6.31934C10.505 6.59629 10.505 7.04531 10.228 7.32226C9.95108 7.59921 9.50206 7.59921 9.22511 7.32226Z" fill="#F6FFFE"/>
<path d="M7.89357 5.99023C7.61662 5.71328 7.61662 5.26426 7.89357 4.98731C8.17052 4.71036 8.61954 4.71036 8.89649 4.98731C9.17344 5.26426 9.17344 5.71328 8.89649 5.99023C8.61954 6.26718 8.17052 6.26718 7.89357 5.99023Z" fill="#F6FFFE"/>
<path d="M6.56154 4.6582C6.28459 4.38125 6.28459 3.93223 6.56154 3.65528C6.83849 3.37833 7.28751 3.37833 7.56446 3.65528C7.84141 3.93223 7.84141 4.38125 7.56446 4.6582C7.28751 4.93515 6.83849 4.93515 6.56154 4.6582Z" fill="#F6FFFE"/>
<path d="M5.22951 3.32617C4.95256 3.04922 4.95255 2.60019 5.2295 2.32324C5.50645 2.04629 5.95548 2.0463 6.23243 2.32325C6.50938 2.6002 6.50938 3.04922 6.23243 3.32617C5.95548 3.60312 5.50646 3.60312 5.22951 3.32617Z" fill="#F6FFFE"/>
<path d="M3.89747 1.99462C3.62052 1.71767 3.62052 1.26865 3.89747 0.991698C4.17442 0.714748 4.62344 0.714753 4.9004 0.991704C5.17735 1.26865 5.17735 1.71767 4.9004 1.99462C4.62344 2.27157 4.17442 2.27157 3.89747 1.99462Z" fill="#F6FFFE"/>
<path d="M11.6524 11.646C11.3754 11.923 11.3754 12.372 11.6524 12.6489C11.9293 12.9259 12.3783 12.9259 12.6553 12.6489C12.9322 12.372 12.9322 11.923 12.6553 11.646C12.3783 11.3691 11.9293 11.3691 11.6524 11.646Z" fill="#F6FFFE"/>
<path d="M10.3203 12.978C10.0434 13.255 10.0434 13.704 10.3203 13.981C10.5973 14.2579 11.0463 14.2579 11.3232 13.981C11.6002 13.704 11.6002 13.255 11.3232 12.978C11.0463 12.7011 10.5973 12.7011 10.3203 12.978Z" fill="#F6FFFE"/>
<path d="M8.98829 14.3101C8.71134 14.587 8.71134 15.036 8.98829 15.313C9.26525 15.5899 9.71426 15.5899 9.99122 15.313C10.2682 15.036 10.2682 14.587 9.99122 14.3101C9.71426 14.0331 9.26525 14.0331 8.98829 14.3101Z" fill="#F6FFFE"/>
<path d="M7.65626 15.6416C7.37931 15.9186 7.37931 16.3676 7.65626 16.6445C7.93321 16.9215 8.38223 16.9215 8.65918 16.6445C8.93613 16.3676 8.93613 15.9186 8.65918 15.6416C8.38223 15.3647 7.93321 15.3647 7.65626 15.6416Z" fill="#F6FFFE"/>
<path d="M6.32423 16.9736C6.04728 17.2506 6.04728 17.6996 6.32423 17.9766C6.60118 18.2535 7.0502 18.2535 7.32715 17.9766C7.6041 17.6996 7.6041 17.2506 7.32715 16.9736C7.0502 16.6967 6.60118 16.6967 6.32423 16.9736Z" fill="#F6FFFE"/>
<path d="M4.99269 18.3057C4.71574 18.5826 4.71574 19.0316 4.99269 19.3086C5.26964 19.5855 5.71866 19.5855 5.99561 19.3086C6.27256 19.0316 6.27256 18.5826 5.99561 18.3057C5.71866 18.0287 5.26964 18.0287 4.99269 18.3057Z" fill="#F6FFFE"/>
<path d="M3.66066 19.6377C3.38371 19.9147 3.38371 20.3637 3.66066 20.6406C3.93761 20.9176 4.38663 20.9176 4.66358 20.6406C4.94053 20.3637 4.94053 19.9147 4.66358 19.6377C4.38663 19.3607 3.93761 19.3607 3.66066 19.6377Z" fill="#F6FFFE"/>
<path d="M2.32863 20.9692C2.05168 21.2462 2.05168 21.6952 2.32863 21.9722C2.60558 22.2491 3.0546 22.2491 3.33155 21.9722C3.6085 21.6952 3.6085 21.2462 3.33155 20.9692C3.0546 20.6923 2.60558 20.6923 2.32863 20.9692Z" fill="#F6FFFE"/>
<path d="M0.996595 22.3013C0.719645 22.5782 0.719645 23.0272 0.996595 23.3042C1.27355 23.5811 1.72257 23.5811 1.99952 23.3042C2.27647 23.0272 2.27647 22.5782 1.99952 22.3013C1.72257 22.0243 1.27355 22.0243 0.996595 22.3013Z" fill="#F6FFFE"/>
<path d="M10.3203 11.3179C10.0434 11.0409 10.0434 10.5919 10.3203 10.3149C10.5973 10.038 11.0463 10.038 11.3232 10.3149C11.6002 10.5919 11.6002 11.0409 11.3232 11.3179C11.0463 11.5948 10.5973 11.5948 10.3203 11.3179Z" fill="#F6FFFE"/>
<path d="M8.98829 9.98584C8.71134 9.70888 8.71134 9.25987 8.98829 8.98291C9.26525 8.70596 9.71426 8.70596 9.99122 8.98291C10.2682 9.25987 10.2682 9.70888 9.99122 9.98584C9.71426 10.2628 9.26525 10.2628 8.98829 9.98584Z" fill="#F6FFFE"/>
<path d="M7.65626 8.6538C7.37931 8.37685 7.37931 7.92783 7.65626 7.65088C7.93321 7.37393 8.38223 7.37393 8.65918 7.65088C8.93613 7.92783 8.93613 8.37685 8.65918 8.6538C8.38223 8.93075 7.93321 8.93075 7.65626 8.6538Z" fill="#F6FFFE"/>
<path d="M6.32423 7.32226C6.04728 7.04531 6.04728 6.59629 6.32423 6.31934C6.60118 6.04239 7.0502 6.04239 7.32715 6.31934C7.6041 6.59629 7.6041 7.04531 7.32715 7.32226C7.0502 7.59921 6.60118 7.59921 6.32423 7.32226Z" fill="#F6FFFE"/>
<path d="M4.99269 5.99023C4.71574 5.71328 4.71574 5.26426 4.99269 4.98731C5.26964 4.71036 5.71866 4.71036 5.99561 4.98731C6.27256 5.26426 6.27256 5.71328 5.99561 5.99023C5.71866 6.26718 5.26964 6.26718 4.99269 5.99023Z" fill="#F6FFFE"/>
<path d="M3.66065 4.65819C3.3837 4.38124 3.3837 3.93222 3.66065 3.65527C3.9376 3.37832 4.38662 3.37832 4.66357 3.65527C4.94052 3.93222 4.94053 4.38125 4.66358 4.6582C4.38663 4.93515 3.9376 4.93514 3.66065 4.65819Z" fill="#F6FFFE"/>
<path d="M2.32863 3.32617C2.05168 3.04922 2.05167 2.60019 2.32862 2.32324C2.60557 2.04629 3.0546 2.0463 3.33155 2.32325C3.6085 2.6002 3.6085 3.04922 3.33155 3.32617C3.0546 3.60312 2.60558 3.60312 2.32863 3.32617Z" fill="#F6FFFE"/>
<path d="M0.99659 1.99462C0.71964 1.71767 0.719634 1.26864 0.996585 0.991693C1.27354 0.714743 1.72256 0.714748 1.99951 0.991698C2.27646 1.26865 2.27647 1.71767 1.99952 1.99462C1.72257 2.27157 1.27354 2.27157 0.99659 1.99462Z" fill="#F6FFFE"/>
<path d="M8.49269 11.646C8.21574 11.923 8.21574 12.372 8.49269 12.6489C8.76964 12.9259 9.21866 12.9259 9.49561 12.6489C9.77256 12.372 9.77256 11.923 9.49561 11.646C9.21866 11.3691 8.76964 11.3691 8.49269 11.646Z" fill="#F6FFFE"/>
<path d="M7.16066 12.978C6.88371 13.255 6.88371 13.704 7.16066 13.981C7.43761 14.2579 7.88663 14.2579 8.16358 13.981C8.44053 13.704 8.44053 13.255 8.16358 12.978C7.88663 12.7011 7.43761 12.7011 7.16066 12.978Z" fill="#F6FFFE"/>
<path d="M5.82911 14.3101C5.55216 14.587 5.55216 15.036 5.82911 15.313C6.10607 15.5899 6.55509 15.5899 6.83204 15.313C7.10899 15.036 7.10899 14.587 6.83204 14.3101C6.55509 14.0331 6.10607 14.0331 5.82911 14.3101Z" fill="#F6FFFE"/>
<path d="M4.49708 15.6416C4.22013 15.9186 4.22013 16.3676 4.49708 16.6445C4.77403 16.9215 5.22305 16.9215 5.5 16.6445C5.77695 16.3676 5.77695 15.9186 5.5 15.6416C5.22305 15.3647 4.77403 15.3647 4.49708 15.6416Z" fill="#F6FFFE"/>
<path d="M3.16554 16.9736C2.88859 17.2506 2.88859 17.6996 3.16554 17.9766C3.44249 18.2535 3.89151 18.2535 4.16846 17.9766C4.44541 17.6996 4.44541 17.2506 4.16846 16.9736C3.89151 16.6967 3.44249 16.6967 3.16554 16.9736Z" fill="#F6FFFE"/>
<path d="M1.83351 18.3057C1.55656 18.5826 1.55656 19.0316 1.83351 19.3086C2.11046 19.5855 2.55948 19.5855 2.83643 19.3086C3.11338 19.0316 3.11338 18.5826 2.83643 18.3057C2.55948 18.0287 2.11046 18.0287 1.83351 18.3057Z" fill="#F6FFFE"/>
<path d="M0.501478 19.6377C0.224528 19.9147 0.224528 20.3637 0.501478 20.6406C0.778429 20.9176 1.22745 20.9176 1.5044 20.6406C1.78135 20.3637 1.78135 19.9147 1.5044 19.6377C1.22745 19.3607 0.778429 19.3607 0.501478 19.6377Z" fill="#F6FFFE"/>
<path d="M7.16066 11.3179C6.88371 11.0409 6.88371 10.5919 7.16066 10.3149C7.43761 10.038 7.88663 10.038 8.16358 10.3149C8.44053 10.5919 8.44053 11.0409 8.16358 11.3179C7.88663 11.5948 7.43761 11.5948 7.16066 11.3179Z" fill="#F6FFFE"/>
<path d="M5.82911 9.98584C5.55216 9.70888 5.55216 9.25987 5.82911 8.98291C6.10607 8.70596 6.55509 8.70596 6.83204 8.98291C7.10899 9.25987 7.10899 9.70888 6.83204 9.98584C6.55509 10.2628 6.10607 10.2628 5.82911 9.98584Z" fill="#F6FFFE"/>
<path d="M4.49708 8.6538C4.22013 8.37685 4.22013 7.92783 4.49708 7.65088C4.77403 7.37393 5.22305 7.37393 5.5 7.65088C5.77695 7.92783 5.77695 8.37685 5.5 8.6538C5.22305 8.93075 4.77403 8.93075 4.49708 8.6538Z" fill="#F6FFFE"/>
<path d="M3.16554 7.32226C2.88859 7.04531 2.88858 6.59629 3.16554 6.31934C3.44249 6.04238 3.89151 6.04239 4.16846 6.31934C4.44541 6.59629 4.44541 7.04531 4.16846 7.32226C3.89151 7.59921 3.44249 7.59921 3.16554 7.32226Z" fill="#F6FFFE"/>
<path d="M1.8335 5.99022C1.55655 5.71327 1.55655 5.26425 1.8335 4.9873C2.11045 4.71035 2.55947 4.71035 2.83642 4.9873C3.11338 5.26425 3.11338 5.71328 2.83643 5.99023C2.55948 6.26718 2.11045 6.26718 1.8335 5.99022Z" fill="#F6FFFE"/>
<path d="M0.501473 4.65819C0.224522 4.38124 0.224522 3.93222 0.501473 3.65527C0.778423 3.37832 1.22744 3.37832 1.50439 3.65527C1.78134 3.93222 1.78135 4.38125 1.5044 4.6582C1.22745 4.93515 0.778423 4.93514 0.501473 4.65819Z" fill="#F6FFFE"/>
</svg>

